<?xml version="1.0" encoding="UTF-8"?><svg id="a" xmlns="http://www.w3.org/2000/svg" viewBox="0 0 1366 1555"><svg y="-200"><path d="M830.57156,925.20665c-9.09706-.40343-14.00679-5.89848-16.76202-13.05912-5.98448-15.55326-11.37411-31.33549-17.36129-48.0111-.45156,0-2.62948-.13423-4.78652,.02065-22.42585,1.61035-44.08351-2.11031-65.17631-9.50637-3.54972-1.24462-7.47375-2.59855-10.04483-5.11048-2.32473-2.27117-4.93791-7.04574-3.98465-9.17801,1.23573-2.76457,5.91501-5.61781,9.04831-5.54873,5.65924,.12497,11.3805,2.04934,16.88319,3.8212,18.12465,5.83555,36.56576,8.56832,55.4876,5.57004,27.55956-4.36705,48.51423-19.59908,65.19138-41.18498,17.52071-22.67784,25.85965-49.21368,31.07635-76.91628,1.39638-7.41549,2.28025-14.92743,3.4406-22.6703-1.54392-.2188-2.41484-.54257-3.22351-.4276-22.698,3.22536-40.69812-9.87694-49.34444-29.18364-3.96499-8.85338-5.49621-18.7765-8.53286-28.08333-.64793-1.98562-2.99732-4.79543-4.63275-4.84353-7.65767-.22499-15.33984,.38282-23.39738,.70864,0,6.31113,.53037,11.27234-.09012,16.08502-2.98511,23.15453-16.3488,38.81891-36.98857,48.22384-20.1298,9.17252-40.40033,9.6801-59.31283-3.41458-14.14884-9.79622-20.23417-24.61643-22.9563-40.95954-2.46613-14.80615-4.75805-17.00607-19.82082-19.24888-3.92997-.58523-8.17592-2.20037-11.27158-4.62605-8.13356-6.37308-17.20146-7.83285-27.50844-7.3006,.77167,8.69502,1.78572,17.03311,2.09637,25.39738,.1006,2.70823-.91885,6.94802-2.73344,7.84719-2.10518,1.04315-5.80679-.42002-8.5374-1.49918-6.70405-2.64936-13.24843-5.70287-21.32456-9.23579,1.48911,4.1444,2.20103,6.12572,2.97499,8.27983-6.72944-2.09842-12.88125-4.67194-19.29058-5.89205-18.88002-3.59417-35.66031,6.86063-39.03464,23.78569-3.37814,16.94432,7.99519,33.39048,25.04755,35.77851,6.40196,.8965,12.9141,1.00877,19.37676,1.46825,6.80666,.48406,9.38227,3.68435,8.96156,10.46303-.1201,1.93412,.341,4.40786,1.50828,5.84202,14.08879,17.31046,28.12077,34.67976,42.73387,51.5427,4.23706,4.88947,9.86435,9.00289,15.61698,12.01437,4.68641,2.45326,10.53202,3.93331,10.46214,9.7432-.04792,3.98723-3.5258,7.93323-5.28571,11.52097,.89255,4.6233,3.03533,9.81777,2.68007,14.83532-2.39154,33.77285-21.05872,57.55534-48.01881,75.85195-4.98293,3.38164-9.8113,1.64116-12.98533-3.74901-3.17251-5.3873-2.2666-11.41812,2.77187-14.02757,29.32262-15.18688,41.54451-42.18752,50.77433-72.24193-17.91873-2.09252-28.14129-13.8876-36.23385-27.52904-10.00563-16.86631-19.12063-34.27363-28.21183-51.66095-2.0072-3.83882-3.64283-5.35443-8.3267-5.4735-8.40243-.21364-17.07685-.95116-25.08925-3.32304-32.67815-9.67388-43.49002-51.83148-20.06618-76.52105,4.52776-4.77236,4.11778-11.59333,2.52298-16.5377-27.78947-86.15645,26.99482-214.90598,146.35317-235.44504,68.26481-11.7469,128.28521,6.87796,178.1257,55.92692,4.26655,4.19873,7.33989,8.61569,3.69776,14.87171,3.25218,3.26076,7.94694,6.40426,.78359,10.31315,36.08176,31.90498,43.38618,75.09373,48.8887,118.86689,5.99783,1.69414,11.98738,2.80129,17.49687,5.07315,9.26156,3.81907,13.41227,18.6682,8.00838,27.02871-.46221,.71503-1.14479,1.7667-1.7874,1.81398-9.76645,.71884-11.69033,8.95987-14.05963,15.73928-6.12399,17.52344-9.29163,35.63682-10.8421,54.25761-3.22924,38.78327-12.34203,75.9062-36.22865,107.86293-17.08193,22.85304-38.8157,39.30478-67.5923,47.46738,6.77585,14.39691,13.30028,28.25968,19.08667,40.55447,6.93495,0,12.52947-1.12489,17.47098,.19569,20.85612,5.57381,41.66228,11.42648,62.2089,18.04069,20.0074,6.44056,34.72487,20.2849,48.10454,36.07671,33.52044,39.56324,55.38569,85.15616,71.18266,134.10474,16.86418,52.25573,34.0821,104.39722,51.12537,156.59525,3.8435,11.77148,1.36852,16.64226-10.49475,20.85411-9.42041,3.34451-18.85171,6.65863-29.05883,10.26185,1.63969,7.77344,3.77255,15.46943,4.82699,23.31056,4.13769,30.76661,8.82303,61.49757,11.65158,92.39325,4.24845,46.40461,10.03557,92.3667,26.29598,136.40664,1.28423,3.47801,2.03439,7.3841,1.97656,11.07468-.09405,5.99362-4.75817,10.7723-10.34999,11.39329-6.10548,.67787-9.39002-2.39892-11.26515-8.1-13.21123-40.16678-24.65834-80.71413-26.64218-123.28475-1.88325-40.41312-3.63279-80.83311-5.23013-121.25844-.24454-6.19005,.64842-12.42501,1.01609-18.65308-16.36093,3.44301-32.35517,6.80883-49.00717,10.31306,.89689,13.82918,1.50853,28.51642,2.86124,43.13499,4.15956,44.94963,8.23572,89.91295,13.08777,134.79056,2.49439,23.07078,6.62061,45.96324,9.87975,68.95486,.56068,3.95494,.88919,8.03362,.59288,12.00019-.57821,7.74025-8.13922,10.94684-14.80218,6.98764-2.55305-1.51717-5.94016-2.29043-8.94288-2.27895-15.20581,.05802-30.40925,.56478-45.61539,.77014-60.83357,.8221-121.666,1.80923-182.50227,2.32714-88.79222,.75588-177.58714,1.20741-266.38161,1.64862-9.82646,.04884-19.66066-1.17562-29.48487-1.08859-4.21084,.0372-8.56562,1.51144-12.56453,3.07581-4.43163,1.73351-7.30438,.0613-8.61265-3.62764-2.59413-7.31461-5.69914-14.74035-6.52271-22.3444-6.43903-59.45061-9.13167-119.09134-6.01053-178.84541,1.30434-24.9713,4.6538-49.82968,6.44267-74.7845,.82673-11.53309,.14095-23.17461,.14095-34.68279-45.47092-10.07411-90.21628-17.56294-131.8792-38.57799-1.08898,15.18639-2.73152,30.01007-3.10005,44.86531-.84311,33.9855-1.50785,67.98731-1.43972,101.98092,.12301,61.3522,4.58263,122.38882,15.20473,182.89131,.42424,2.41646,.66274,4.87291,.85849,7.32084,.43679,5.46244-1.76087,9.30183-7.37836,10.15032-5.65369,.85405-10.55785-.84815-11.93481-6.98633-1.95126-8.69837-3.74312-17.48624-4.74877-26.3331-3.07703-27.06964-6.74921-54.12814-8.30898-81.29907-1.77918-30.99262-2.48524-62.11783-1.94825-93.15602,.8178-47.26825,8.60216-93.80488,17.42939-140.16294,.4772-2.50611-1.40301-7.19686-3.44308-8.13499-7.30753-3.36033-7.70265-8.93963-5.8669-15.07076,6.26101-20.91024,11.52546-42.25545,19.60426-62.46086,32.18745-80.50197,83.82238-145.66914,156.58681-193.394,28.98326-19.00964,60.37656-31.57813,95.47169-34.14816,7.43873-.5447,14.47965-2.6242,21.12352,2.10645,3.88118,2.76359,7.41485,5.70263,6.72707,11.39018-.16933,1.4004,1.14819,3.11932,2.07859,4.49046,4.25393,6.2688,9.43262,12.05526,12.79175,18.76043,13.85122,27.64893,36.29603,45.54719,64.12565,57.16109,31.74652,13.24858,64.48009,16.8577,97.47614,5.40672,30.34519-10.53096,51.75462-31.02671,63.0536-61.49258,.46524-1.25437,.86036-2.53807,1.21885-3.82743,.23479-.84463,.34465-1.72409,.668-3.40876Zm65.14993-323.69864c-3.83023-44.8953-16.54239-85.86349-40.70132-122.57726-10.41364,2.2801-19.93547,5.97043-29.50621,6.10163-16.23853,.22257-32.50066-1.92732-48.76598-2.84705-22.46231-1.27022-44.94026-3.22077-67.40494-3.13604-13.56932,.05118-27.30002,3.50087-37.91884,12.98803-3.3962,3.03434-5.69275,8.45839-6.38582,13.10357-1.18219,7.92393,2.5179,14.6498,8.27082,20.30584,7.94932,7.81543,5.91558,14.9698-4.9135,17.91179-1.93007,.52434-3.91555,.98861-5.90132,1.13956-9.34938,.71085-18.72232,1.14234-28.05892,1.98357-8.95894,.80718-11.12625,3.13805-11.21985,12.33311-.14562,14.30492-.09388,28.61513,.13575,42.9189,.08065,5.0232,.93159,10.03407,1.46691,15.41326,17.17668-1.58224,33.34185-1.41089,49.64375-7.39558,26.13098-9.59295,53.87454-9.68482,81.40952-5.4329,12.01008,1.85459,23.98501,4.7327,33.36413,12.77451,7.474,6.40828,15.548,7.23652,24.30951,5.84038,5.01344-.79894,9.97773-2.40044,14.73271-4.23946,15.92624-6.15965,30.69254-15.71138,48.57502-16.03643,5.99545-.10899,11.98198-.71433,18.86859-1.14943Zm-277.91088,15.90256c0-2.55405,.07054-4.32932-.01081-6.09757-.88329-19.19684-2.08515-38.38476-2.59974-57.59119-.42743-15.95235,2.46072-18.4006,18.20342-17.59002,.89136,.04589,1.78424,.27899,2.66733,.23654,8.00023-.38413,16.10877-.13202,23.96719-1.4099,8.29974-1.34955,8.76543-3.54045,4.69865-10.76926-3.27327-5.8183-6.50739-11.68912-9.25902-17.76318-3.7479-8.2734-1.94264-15.6128,4.62316-21.92639,11.19396-10.76398,24.88948-16.28837,39.82609-19.1614,21.46858-4.12932,42.74096-.52946,63.9967,2.05139,17.71806,2.15128,35.39377,4.66731,53.0644,7.18899,15.20573,2.16996,27.86488-6.37283,41.7682-9.66236,.24446-.05777,.34105-.74072,.80268-1.83144-1.87907-1.74941-3.74585-3.94965-6.03887-5.53189-5.87265-4.05229-11.84386-7.97925-17.93778-11.6899-20.97672-12.7732-41.61304-26.72657-66.38025-30.86462-20.423-3.41228-41.08824-6.27913-61.74333-7.19571-35.69132-1.58375-67.56007,9.24148-93.03968,35.13243-13.76479,13.98692-26.70203,28.81196-39.62043,43.60164-10.13498,11.60324-16.65704,25.35924-21.20417,39.99297-9.63673,31.01319-10.75534,62.79197-7.99073,94.86195,.33261,3.8582,1.30278,7.66137,2.02632,11.76763,22.56995-10.36457,46.14285-12.73461,70.18066-15.74871Zm134.17179,4.8312c-19.90221,.36581-35.00873,2.65071-47.79864,12.69757-10.42036,8.18551-12.91008,15.91588-8.42021,28.26689,2.49857,6.87329,5.57019,13.71334,9.4957,19.85738,9.45138,14.79271,23.39058,21.65711,40.69067,18.18648,8.72701-1.75072,17.59395-5.39819,25.07647-10.23366,16.86025-10.89587,25.10654-31.24932,21.10878-48.68114-1.96296-8.55939-5.89264-15.28882-15.8553-16.48718-9.50413-1.14321-18.94674-2.79829-24.29746-3.60634Zm144.82498,32.24441c0-11.55182-.23864-21.85136,.09986-32.13189,.17146-5.20533-2.12295-6.65084-6.74194-6.55455-9.70927,.20249-18.39819,3.29375-26.20496,8.94831-15.07826,10.9214-21.8768,30.37941-16.1594,46.07534,4.43679,12.17974,25.4552,24.07242,40.28671,23.17461,4.60825-.27903,6.84696-1.67451,7.01212-6.59798,.38217-11.39661,1.15888-22.77999,1.7076-32.91383Zm-278.2516-24.93602c-15.96237,3.70697-30.04498,6.97736-44.12759,10.24775l.11821,1.75986c10.5994,2.99886,21.13245,6.27036,31.82754,8.87636,5.00865,1.22036,9.60257-.74801,10.91432-6.2105,1.00417-4.18165,.80305-8.65294,1.26751-14.67348Z"/><path d="M800.80934,719.61718c2.21077,.50365,6.29013,1.43932,10.37326,2.35852,.97185,.21872,2.0833,.78079,2.91589,.5143,18.89104-6.04558,38.16089-.39613,49.81304,14.75346,.939,1.22069,2.09977,2.62698,2.24322,4.03992,.5221,5.14145,.65547,10.32249,.9354,15.48861-4.05756-.03327-8.19648,.43957-12.15697-.19782-10.5534-1.69828-20.97467-4.2865-31.55765-5.70689-6.43817-.86413-13.19378-1.01574-19.605-.08981-14.33333,2.07007-28.58368,4.80293-42.77774,7.70616-5.7886,1.18397-7.80587-.85176-8.07294-6.29437-.421-8.58193,3.35737-15.14746,9.70362-20.31317,10.49581-8.54333,22.98661-11.45025,38.18587-12.2589Z"/><path d="M817.02608,715.2366c-5.0712-.96009-10.85873-1.69115-16.42581-3.22372-4.55877-1.25486-8.46027-4.02582-6.85171-9.68527,1.62191-5.70689,6.19354-5.54791,10.91624-4.52996,5.65678,1.21929,11.28432,2.71795,17.00722,3.44375,5.12732,.65033,10.13289-.58863,12.28698-5.98166,2.25624-5.64904-2.19693-8.96208-5.8783-11.47901-3.76756-2.57593-8.52827-3.65739-12.71339-5.68415-1.59037-.7701-2.78841-2.35094-4.16521-3.56221,1.31339-1.0082,2.47932-2.44232,3.96368-2.95641,10.78418-3.73503,27.14699,5.54488,30.47708,17.14181,3.32304,11.57284-4.31824,22.26057-17.9404,24.9545-3.27667,.64804-6.61618,.97812-10.67637,1.56232Z"/><path d="M831.29281,778.86276c-9.02128-1.16005-18.07812-2.11244-27.03582-3.64452-1.93273-.33058-3.50827-2.74999-5.2484-4.20717,1.37844-1.52061,2.50635-3.95936,4.17545-4.41499,12.22447-3.33771,24.47098-6.71681,36.89092-9.16818,6.74497-1.3314,12.24298,3.30428,12.67267,8.93561,.42633,5.58659-4.19167,10.85285-10.65671,11.59816-3.52466,.40629-7.13451,.07252-10.70586,.07252-.0308,.27616-.06152,.55241-.09225,.82857Z"/><path d="M553.83763,685.59169c-.64535-7.35731,1.23773-10.34314,8.1649-10.50265,6.36403-.1466,12.8112,1.10932,19.13799,2.22356,5.4752,.96423,10.82269,2.63981,16.24542,3.92138,4.96597,1.17365,6.56584,4.28609,5.1308,8.9756-1.53409,5.01312-5.68824,6.9715-10.41385,4.80449-8.29323-3.80293-16.51056-7.77319-24.72863-11.73772-4.91878-2.37287-9.64373-3.73925-13.53663,2.31534Z"/><path d="M895.72149,601.50801c-6.88661,.4351-12.87314,1.04044-18.86859,1.14943-17.88248,.32504-32.64878,9.87678-48.57502,16.03643-4.75498,1.83902-9.71926,3.44052-14.73271,4.23946-8.7615,1.39614-16.83551,.56789-24.30951-5.84038-9.37912-8.04181-21.35405-10.91992-33.36413-12.77451-27.53498-4.25192-55.27854-4.16005-81.40952,5.4329-16.3019,5.98469-32.46707,5.81334-49.64375,7.39558-.53533-5.37918-1.38626-10.39005-1.46691-15.41326-.22963-14.30377-.28136-28.61398-.13575-42.9189,.0936-9.19506,2.26091-11.52592,11.21985-12.33311,9.3366-.84123,18.70954-1.27272,28.05892-1.98357,1.98577-.15095,3.97126-.61522,5.90132-1.13956,10.82908-2.94199,12.86281-10.09635,4.9135-17.91179-5.75292-5.65604-9.45301-12.3819-8.27082-20.30584,.69307-4.64518,2.98962-10.06923,6.38582-13.10357,10.61882-9.48716,24.34953-12.93685,37.91884-12.98803,22.46468-.08473,44.94264,1.86582,67.40494,3.13604,16.26532,.91974,32.52745,3.06962,48.76598,2.84705,9.57074-.1312,19.09257-3.82153,29.50621-6.10163,24.15893,36.71377,36.87109,77.68196,40.70132,122.57726Z" style="fill:#fff;"/><path d="M617.81061,617.41058c-24.03781,3.0141-47.61071,5.38414-70.18066,15.74871-.72354-4.10625-1.69372-7.90943-2.02632-11.76763-2.76461-32.06998-1.646-63.84876,7.99073-94.86195,4.54714-14.63373,11.06919-28.38973,21.20417-39.99297,12.9184-14.78968,25.85564-29.61472,39.62043-43.60164,25.47961-25.89095,57.34836-36.71619,93.03968-35.13243,20.65509,.91658,41.32033,3.78342,61.74333,7.19571,24.76721,4.13805,45.40354,18.09142,66.38025,30.86462,6.09393,3.71065,12.06513,7.63761,17.93778,11.6899,2.29303,1.58224,4.1598,3.78248,6.03887,5.53189-.46164,1.09072-.55822,1.77367-.80268,1.83144-13.90332,3.28953-26.56247,11.83233-41.7682,9.66236-17.67063-2.52168-35.34634-5.03771-53.0644-7.18899-21.25574-2.58085-42.52812-6.18071-63.9967-2.05139-14.93661,2.87303-28.63213,8.39742-39.82609,19.1614-6.5658,6.31359-8.37106,13.65299-4.62316,21.92639,2.75163,6.07405,5.98575,11.94488,9.25902,17.76318,4.06678,7.22881,3.60109,9.41972-4.69865,10.76926-7.85842,1.27789-15.96696,1.02577-23.96719,1.4099-.88309,.04245-1.77597-.19065-2.66733-.23654-15.74269-.81058-18.63085,1.63768-18.20342,17.59002,.5146,19.20643,1.71645,38.39434,2.59974,57.59119,.08135,1.76826,.01081,3.54352,.01081,6.09757Z" style="fill:#fff;"/><path d="M751.9824,622.24178c5.35072,.80804,14.79333,2.46313,24.29746,3.60634,9.96266,1.19836,13.89234,7.92778,15.8553,16.48718,3.99776,17.43182-4.24853,37.78527-21.10878,48.68114-7.48252,4.83546-16.34946,8.48294-25.07647,10.23366-17.30009,3.47063-31.23929-3.39376-40.69067-18.18648-3.92551-6.14404-6.99713-12.98409-9.4957-19.85738-4.48987-12.35101-2.00015-20.08138,8.42021-28.26689,12.7899-10.04686,27.89642-12.33175,47.79864-12.69757Zm18.753,39.36337c-2.10354-5.93274-3.28536-11.74321-6.10032-16.60797-3.93353-6.7974-11.25647-6.9497-16.13646-1.19127-7.10051,8.37862-7.2524,26.86592-.28968,35.26588,4.90522,5.91782,12.23938,6.04115,16.17619-.62038,2.96103-5.01026,4.23198-11.01998,6.35026-16.84627Z" style="fill:#fff;"/><path d="M896.80738,654.48618c-.54872,10.13385-1.32543,21.51722-1.7076,32.91383-.16516,4.92347-2.40387,6.31895-7.01212,6.59798-14.83151,.89781-35.84992-10.99487-40.28671-23.17461-5.71741-15.69593,1.08114-35.15394,16.1594-46.07534,7.80677-5.65457,16.49569-8.74582,26.20496-8.94831,4.61898-.09629,6.9134,1.34922,6.74194,6.55455-.33851,10.28053-.09986,20.58007-.09986,32.13189Zm-11.82616,7.67571c-1.90627-5.8689-2.89745-11.71858-5.6064-16.61809-4.28474-7.74988-12.08545-7.69337-17.25585-.60534-6.11047,8.37665-6.03437,25.37161,.15098,33.66627,4.74244,6.35972,12.57305,6.66047,16.60965-.13521,2.85723-4.8103,4.04642-10.61201,6.10163-16.30763Z" style="fill:#fff;"/><path d="M618.55579,629.55016c-.46446,6.02054-.26334,10.49183-1.26751,14.67348-1.31175,5.46248-5.90567,7.43086-10.91432,6.2105-10.69509-2.60601-21.22814-5.8775-31.82754-8.87636l-.11821-1.75986c14.08261-3.27039,28.16521-6.54079,44.12759-10.24775Z" style="fill:#fff;"/><path d="M770.7354,661.60515c-2.11828,5.82629-3.38924,11.83601-6.35026,16.84627-3.93681,6.66153-11.27097,6.5382-16.17619,.62038-6.96272-8.39996-6.81083-26.88727,.28968-35.26588,4.87999-5.75843,12.20292-5.60614,16.13646,1.19127,2.81496,4.86476,3.99678,10.67523,6.10032,16.60797Z"/><path d="M884.98122,662.1619c-2.0552,5.69562-3.2444,11.49732-6.10163,16.30763-4.03659,6.79568-11.8672,6.49494-16.60965,.13521-6.18535-8.29466-6.26146-25.28962-.15098-33.66627,5.17041-7.08803,12.97112-7.14453,17.25585,.60534,2.70895,4.8995,3.70013,10.74919,5.6064,16.61809Z"/></svg></svg>
